<svg width="29" height="20" viewBox="0 0 29 20" fill="none" xmlns="http://www.w3.org/2000/svg">
<g clip-path="url(#clip0_2039_1143)">
<path d="M2.19655 14.0517C1.96982 14.1377 1.81889 14.3764 1.81889 14.701V18.2064C1.81889 18.7224 1.91314 18.961 2.41207 18.961C3.14894 18.961 4.05519 18.5984 4.44273 17.8337C4.31092 18.4164 4.13098 19.181 4.13098 19.181H0.751824C0.968665 19.0664 1.12289 18.8844 1.12289 18.533V14.701C1.12289 14.271 0.886938 14.109 0.755119 14.0424H2.19655V14.0517ZM14.0378 14.0517H12.8765C13.0061 14.1026 13.1177 14.1918 13.1968 14.3075C13.2759 14.4233 13.3188 14.5603 13.32 14.701V17.8437L10.6006 14.0517H9.55926C9.73531 14.1368 9.89026 14.2607 10.0127 14.4144V18.541C10.0113 18.6818 9.96826 18.8189 9.88908 18.9346C9.80989 19.0504 9.69822 19.1395 9.56848 19.1904H10.7206C10.5909 19.1394 10.4793 19.0503 10.4003 18.9346C10.3212 18.8188 10.2782 18.6817 10.277 18.541V14.7677L13.6008 19.3817V14.701C13.5961 14.5603 13.6356 14.4216 13.7136 14.305C13.7917 14.1883 13.9042 14.0997 14.0351 14.0517H14.0378ZM24.8502 8.31838C24.982 8.38504 25.2179 8.54771 25.2179 8.97704V12.807C25.2179 13.161 25.067 13.3404 24.8502 13.457H28.2306C28.2306 13.457 28.4099 12.6924 28.5516 12.1104C28.1641 12.8744 27.2578 13.237 26.521 13.237C26.0207 13.237 25.9278 12.9984 25.9278 12.4824V8.97971C25.9278 8.65504 26.0787 8.40704 26.3054 8.33038L24.8502 8.31838ZM24.2174 12.7597C24.3875 13.2084 24.6518 13.3804 24.8311 13.457H23.2921C23.528 13.3517 23.6315 13.151 23.5181 12.857C23.4338 12.6277 23.0568 11.6444 23.0568 11.6444H21.4506C21.4506 11.6444 21.0551 12.6944 20.9892 12.857C20.8758 13.153 21.0459 13.4017 21.2159 13.457H20.1476C20.3552 13.3424 20.572 13.237 20.7519 12.7597C20.9404 12.263 21.8757 9.76971 22.4794 8.14638C23.4806 10.8017 23.9716 12.1464 24.2174 12.7597ZM22.9704 11.3997L22.2626 9.48638L21.5448 11.3997H22.9704ZM20.2985 8.31438C20.487 8.37171 20.6854 8.65838 20.4685 9.02171L19.4015 10.7977C19.4015 10.7977 18.5446 9.21238 18.4095 8.95438C18.3575 8.84446 18.348 8.7188 18.383 8.60218C18.418 8.48556 18.495 8.38644 18.5987 8.32438H16.9747C17.3523 8.49638 17.5883 8.85771 17.7208 9.10704C17.9376 9.50704 18.8538 11.2084 18.8538 11.2084V12.813C18.8538 13.1384 18.7219 13.3384 18.4853 13.463H19.9109C19.675 13.3484 19.5524 13.1297 19.5524 12.813V11.005C19.5524 11.005 20.6102 9.24704 20.8086 8.91304C20.9029 8.75038 21.1579 8.43571 21.4222 8.31304L20.2985 8.31438ZM13.3484 10.8904C13.3484 9.25704 14.0286 8.46438 15.0765 8.46438C16.1245 8.46438 16.8139 9.25704 16.8139 10.8904C16.8139 12.5237 16.1245 13.3164 15.0765 13.3164C14.0286 13.3164 13.3484 12.5237 13.3484 10.8904ZM17.6074 10.8904C17.6074 9.16104 16.3604 8.22371 15.0765 8.22371C13.7926 8.22371 12.5456 9.15704 12.5456 10.8904C12.5456 12.6237 13.7827 13.5644 15.0765 13.5644C16.3703 13.5644 17.6074 12.6097 17.6074 10.8904ZM5.21651 16.6117C5.21651 14.9784 5.89669 14.1857 6.94464 14.1857C7.9926 14.1857 8.68201 14.9784 8.68201 16.6117C8.68201 18.245 7.99326 19.0377 6.95453 19.0377C5.9158 19.0377 5.21651 18.245 5.21651 16.6117ZM9.47555 16.6117C9.47555 14.8824 8.22921 13.945 6.94464 13.945C5.66007 13.945 4.41439 14.8784 4.41439 16.6117C4.41439 18.345 5.65085 19.2784 6.94464 19.2784C8.23844 19.2784 9.47555 18.333 9.47555 16.6117ZM19.787 16.6117C19.787 14.9784 20.4672 14.1857 21.5152 14.1857C22.5631 14.1857 23.2525 14.9784 23.2525 16.6117C23.2525 18.245 22.5631 19.0377 21.5152 19.0377C20.4672 19.0377 19.787 18.245 19.787 16.6117ZM24.0461 16.6117C24.0461 14.8824 22.7997 13.945 21.5152 13.945C20.2306 13.945 18.9843 14.8784 18.9843 16.6117C18.9843 18.345 20.2214 19.2784 21.5152 19.2784C22.809 19.2784 24.0461 18.333 24.0461 16.6117ZM8.4856 8.31104C8.71167 8.41638 8.84414 8.64438 8.84414 8.96104V12.7997C8.84414 13.115 8.72155 13.333 8.47571 13.449H9.90198C9.66603 13.3344 9.54278 13.1244 9.54278 12.7997V10.995C9.58956 10.9857 9.6377 10.9857 9.68448 10.995C9.93955 10.995 10.2118 10.9764 10.5347 11.425C10.9302 11.979 11.5893 12.8957 11.9979 13.4597H13.15C12.8099 13.393 12.5647 13.0297 12.3472 12.743C11.3368 11.425 11.3276 10.9857 10.2513 10.9377C12.8765 10.9477 12.6497 8.33038 10.3363 8.33038L8.4856 8.31104ZM9.55267 8.56904C9.74117 8.55038 9.93033 8.54038 10.1188 8.54038C10.9592 8.54038 11.3368 8.91304 11.3368 9.63904C11.3368 10.439 10.8933 10.7564 9.99623 10.7564H9.55267V8.56904ZM28.6551 14.0424H27.5037C27.6334 14.0932 27.745 14.1823 27.8241 14.2981C27.9032 14.4139 27.9461 14.551 27.9472 14.6917V17.8344L25.2278 14.0424H24.1792C24.3555 14.1271 24.5105 14.2511 24.6327 14.405V18.533C24.6315 18.6738 24.5886 18.811 24.5095 18.9269C24.4304 19.0428 24.3188 19.132 24.1891 19.183H25.3412C25.2114 19.1321 25.0996 19.0429 25.0204 18.927C24.9412 18.8112 24.8982 18.6739 24.897 18.533V14.7584L28.2208 19.3717V14.6917C28.2181 14.5514 28.2585 14.4137 28.3362 14.2974C28.414 14.1812 28.5254 14.0921 28.6551 14.0424ZM15.9168 14.0424H14.1729C14.3522 14.1184 14.5407 14.3384 14.5407 14.6824V18.5217C14.5491 18.6558 14.5189 18.7896 14.4536 18.9066C14.3883 19.0237 14.2908 19.119 14.1729 19.181H16.052C17.6667 19.181 18.5822 18.2477 18.5822 16.6477C18.5822 15.8164 18.2046 14.0404 15.9195 14.0404M16.1271 18.959C15.3718 18.959 15.2492 18.6344 15.2492 17.851V14.2904C15.5227 14.271 15.7106 14.271 15.8628 14.271C17.1849 14.271 17.7893 15.045 17.7893 16.8404C17.7801 18.2924 17.2133 18.961 16.1271 18.961M6.74757 13.4497C6.40814 13.3924 6.27567 13.5357 5.76553 13.4884C5.44518 13.4597 5.12295 13.4597 4.8026 13.4884C4.87839 13.2684 5.21782 13.3257 5.30285 13.2017C5.43467 13.0104 5.2086 12.6857 5.06689 12.2684C5.01021 12.0964 5.04844 11.7617 5.33053 11.735C5.31207 11.9837 5.44389 12.7097 5.69896 12.977C5.81232 13.0917 5.92569 13.197 6.33169 13.2064C6.50239 13.1997 6.66255 13.249 6.74757 13.4497ZM8.79669 7.27038C8.80151 7.19749 8.79149 7.12437 8.76722 7.05556C8.74296 6.98676 8.70498 6.92372 8.65564 6.87038C8.42892 6.64904 7.91153 6.10504 7.4561 5.59971C8.42892 7.26171 6.69089 9.85971 6.00214 10.7097C5.91712 10.815 6.06805 10.5097 5.95469 10.243C5.79387 11.1864 5.00098 11.4344 4.87971 11.7117C4.72812 11.253 3.49167 11.6544 2.30135 11.8644C3.06523 11.3584 4.70835 10.1997 5.32196 9.13304C4.35903 10.2504 2.96835 11.215 2.20578 11.7017C1.9576 11.8569 1.67568 11.9485 1.38455 11.9684C1.03457 11.9777 0.581778 11.911 0.335938 11.7017C1.77144 11.4157 2.02651 9.73438 2.60255 8.80771C2.83098 8.42886 3.09591 8.07379 3.39346 7.74771C2.49644 9.05638 2.09966 10.995 2.09966 10.995C2.09966 10.995 3.28998 8.48304 4.58378 7.65238C5.17696 7.27038 6.11353 7.00304 5.98105 8.00571C6.53798 7.03104 5.87692 6.43904 4.90476 6.62038C5.0748 6.52504 5.2633 6.42971 5.46169 6.30571C5.76355 6.13371 6.28292 5.78971 6.16955 5.23904C6.01862 4.54171 5.31273 3.62504 5.08403 2.89904C4.9331 2.41171 4.75448 1.48504 5.59417 1.08438C5.54671 0.979042 5.29164 0.797708 5.28242 0.484375C5.48014 0.675708 5.71676 0.723042 6.08519 0.837708C6.8873 1.07638 7.1516 1.38238 7.2933 1.77104C7.35921 1.97104 7.38821 2.31571 7.46335 2.73571C7.96426 4.14971 8.84217 6.48971 8.9463 6.83371C9.01419 7.10771 8.90017 7.20304 8.79669 7.27038ZM6.75746 2.45637C6.77574 2.49361 6.80394 2.52495 6.83887 2.54685C6.8738 2.56876 6.91409 2.58037 6.95519 2.58038C6.97929 2.55002 6.99538 2.51397 7.00195 2.47561C7.00852 2.43725 7.00536 2.39783 6.99276 2.36104C6.98762 2.34501 6.97929 2.33022 6.96828 2.31757C6.95727 2.30492 6.94382 2.29469 6.92875 2.28751C6.91368 2.28032 6.89731 2.27634 6.88066 2.2758C6.86401 2.27526 6.84743 2.27818 6.83194 2.28438C6.80105 2.29907 6.77648 2.32461 6.76278 2.35623C6.74908 2.38786 6.74719 2.42344 6.75746 2.45637ZM8.75912 6.71638C8.58907 6.19104 7.35196 3.14371 7.2386 2.89571C7.18192 2.78104 6.95585 2.82904 7.04087 3.03904C7.12589 3.24904 8.12639 5.54104 8.33401 6.07638C7.92801 5.53304 7.06921 3.56438 6.80426 3.15371C6.77592 3.10571 6.54062 2.75371 6.2381 2.97171C5.79387 2.81904 5.65217 2.42771 5.71082 2.04571C5.4261 2.82904 5.92635 3.06638 6.18142 3.13304C6.15307 3.95571 8.40057 6.36304 8.75912 6.71638Z" fill="white"/>
</g>
<defs>
<clipPath id="clip0_2039_1143">
<rect width="29" height="20" fill="white"/>
</clipPath>
</defs>
</svg>
